<svg xmlns="http://www.w3.org/2000/svg" viewBox="0 0 800 200" font-family="system-ui, sans-serif">
  <defs>
    <marker id="a33" markerWidth="10" markerHeight="7" refX="10" refY="3.5" orient="auto">
      <polygon points="0 0, 10 3.5, 0 7" fill="#64748b"/>
    </marker>
  </defs>
  <rect width="800" height="200" rx="12" fill="#f8fafc" stroke="#e2e8f0" stroke-width="1"/>
  <text x="400" y="28" text-anchor="middle" font-size="16" font-weight="700" fill="#0f172a">UltimateCutIn — 4フェーズ演出 (2500ms)</text>

  <!-- Phase 1 -->
  <rect x="20" y="55" width="175" height="90" rx="8" fill="#fef2f2" stroke="#ef4444" stroke-width="2"/>
  <text x="107" y="78" text-anchor="middle" font-size="11" font-weight="700" fill="#991b1b">Phase 1</text>
  <text x="107" y="96" text-anchor="middle" font-size="10" fill="#475569">背景グロー</text>
  <text x="107" y="112" text-anchor="middle" font-size="9" fill="#94a3b8">属性カラーの</text>
  <text x="107" y="126" text-anchor="middle" font-size="9" fill="#94a3b8">フルスクリーン輝き</text>

  <line x1="200" y1="100" x2="220" y2="100" stroke="#64748b" stroke-width="1.5" marker-end="url(#a33)"/>

  <!-- Phase 2 -->
  <rect x="225" y="55" width="175" height="90" rx="8" fill="#eff6ff" stroke="#3b82f6" stroke-width="2"/>
  <text x="312" y="78" text-anchor="middle" font-size="11" font-weight="700" fill="#1e40af">Phase 2</text>
  <text x="312" y="96" text-anchor="middle" font-size="10" fill="#475569">怪獣名ドロップイン</text>
  <text x="312" y="112" text-anchor="middle" font-size="9" fill="#94a3b8">上からスライドして</text>
  <text x="312" y="126" text-anchor="middle" font-size="9" fill="#94a3b8">中央に配置</text>

  <line x1="405" y1="100" x2="425" y2="100" stroke="#64748b" stroke-width="1.5" marker-end="url(#a33)"/>

  <!-- Phase 3 -->
  <rect x="430" y="55" width="175" height="90" rx="8" fill="#fdf4ff" stroke="#a855f7" stroke-width="2"/>
  <text x="517" y="78" text-anchor="middle" font-size="11" font-weight="700" fill="#6b21a8">Phase 3</text>
  <text x="517" y="96" text-anchor="middle" font-size="10" fill="#475569">技名ズーム</text>
  <text x="517" y="112" text-anchor="middle" font-size="9" fill="#94a3b8">scale 5 → 1</text>
  <text x="517" y="126" text-anchor="middle" font-size="9" fill="#94a3b8">爆発的に登場</text>

  <line x1="610" y1="100" x2="630" y2="100" stroke="#64748b" stroke-width="1.5" marker-end="url(#a33)"/>

  <!-- Phase 4 -->
  <rect x="635" y="55" width="140" height="90" rx="8" fill="#0f172a" stroke="#334155" stroke-width="2"/>
  <text x="705" y="78" text-anchor="middle" font-size="11" font-weight="700" fill="#e2e8f0">Phase 4</text>
  <text x="705" y="96" text-anchor="middle" font-size="10" fill="#94a3b8">暗転</text>
  <text x="705" y="112" text-anchor="middle" font-size="9" fill="#64748b">フェードアウトして</text>
  <text x="705" y="126" text-anchor="middle" font-size="9" fill="#64748b">バトルに戻る</text>

  <!-- Timeline bar -->
  <rect x="20" y="160" width="755" height="8" rx="4" fill="#e2e8f0"/>
  <rect x="20" y="160" width="190" height="8" rx="4" fill="#ef4444" opacity="0.7"/>
  <rect x="210" y="160" width="190" height="8" fill="#3b82f6" opacity="0.7"/>
  <rect x="400" y="160" width="210" height="8" fill="#a855f7" opacity="0.7"/>
  <rect x="610" y="160" width="165" height="8" rx="4" fill="#334155"/>

  <text x="107" y="185" text-anchor="middle" font-size="8" fill="#94a3b8">~600ms</text>
  <text x="312" y="185" text-anchor="middle" font-size="8" fill="#94a3b8">~600ms</text>
  <text x="517" y="185" text-anchor="middle" font-size="8" fill="#94a3b8">~800ms</text>
  <text x="705" y="185" text-anchor="middle" font-size="8" fill="#94a3b8">~500ms</text>
</svg>