<svg xmlns="http://www.w3.org/2000/svg" width="1400" height="800" viewBox="0 0 1400 800">
  <defs>
    <filter id="glassBlur" x="-20%" y="-20%" width="140%" height="140%">
      <feGaussianBlur stdDeviation="16" result="blur"/>
      <feColorMatrix type="matrix" values="1 0 0 0 0  0 1 0 0 0  0 0 1 0 0  0 0 0 18 -7" result="glow"/>
      <feBlend in="SourceGraphic" in2="glow" mode="normal"/>
    </filter>
    <filter id="softShadow">
      <feDropShadow dx="0" dy="8" stdDeviation="24" flood-color="#64748b" flood-opacity="0.15"/>
    </filter>
    <linearGradient id="glassGradient" x1="0%" y1="0%" x2="100%" y2="100%">
      <stop offset="0%" stop-color="#ffffff" stop-opacity="0.8" />
      <stop offset="100%" stop-color="#ffffff" stop-opacity="0.3" />
    </linearGradient>
    <linearGradient id="glassBorder" x1="0%" y1="0%" x2="100%" y2="100%">
      <stop offset="0%" stop-color="#ffffff" stop-opacity="1" />
      <stop offset="100%" stop-color="#ffffff" stop-opacity="0.1" />
    </linearGradient>
    <style>
      .tTitle{font:800 44px system-ui, sans-serif; fill:#1e293b; letter-spacing:-0.5px}
      .tSub{font:500 18px system-ui, sans-serif; fill:#475569}
      .tCardH{font:700 34px system-ui, sans-serif; fill:#0f172a; letter-spacing:0.2px}
      .tCardS{font:500 18px system-ui, sans-serif; fill:#475569}
      .tCenter{font:800 30px system-ui, sans-serif; fill:#0f172a; letter-spacing:0.2px}
      .tBadge{font:700 14px system-ui, sans-serif; fill:#ffffff}
      .line{stroke:#ffffff; stroke-width:4; fill:none; stroke-linecap:round}
    </style>
  </defs>

  <!-- Background Base -->
  <rect width="1400" height="800" fill="#f8fafc"/>
  
  <!-- Colorful Orbs in Background for glass effect -->
  <circle cx="300" cy="200" r="180" fill="#bae6fd" filter="blur(60px)"/>
  <circle cx="1100" cy="600" r="220" fill="#ddd6fe" filter="blur(60px)"/>
  <circle cx="700" cy="300" r="250" fill="#bfdbfe" filter="blur(80px)"/>
  <circle cx="900" cy="200" r="150" fill="#fbcfe8" filter="blur(50px)"/>
  <circle cx="400" cy="500" r="200" fill="#fed7aa" filter="blur(70px)"/>

  <text x="700" y="90" text-anchor="middle" class="tTitle">ハーネスエンジニアリングとは？</text>

  <!-- Connection Lines -->
  <path d="M 600 300 C 500 280, 450 255, 395 255" class="line"/>
  <path d="M 600 330 C 500 370, 450 495, 395 495" class="line"/>
  <path d="M 800 300 C 900 280, 950 255, 1005 255" class="line"/>
  <path d="M 800 330 C 900 370, 950 495, 1005 495" class="line"/>

  <!-- Left top -->
  <g transform="translate(180 180)" filter="url(#softShadow)">
    <rect width="430" height="150" rx="24" fill="url(#glassGradient)" stroke="url(#glassBorder)" stroke-width="2"/>
    <text x="40" y="68" class="tCardH">CLAUDE.md</text>
    <text x="40" y="105" class="tCardS">プロジェクト指示事項</text>
  </g>
  <!-- Left bottom -->
  <g transform="translate(180 420)" filter="url(#softShadow)">
    <rect width="430" height="150" rx="24" fill="url(#glassGradient)" stroke="url(#glassBorder)" stroke-width="2"/>
    <text x="40" y="68" class="tCardH">スキルファイル</text>
    <text x="40" y="105" class="tCardS">専門スキル設定</text>
  </g>
  <!-- Right top -->
  <g transform="translate(790 180)" filter="url(#softShadow)">
    <rect width="430" height="150" rx="24" fill="url(#glassGradient)" stroke="url(#glassBorder)" stroke-width="2"/>
    <text x="40" y="68" class="tCardH">MCPサーバ</text>
    <text x="40" y="105" class="tCardS">外部ツール連携</text>
  </g>
  <!-- Right bottom -->
  <g transform="translate(790 420)" filter="url(#softShadow)">
    <rect width="430" height="150" rx="24" fill="url(#glassGradient)" stroke="url(#glassBorder)" stroke-width="2"/>
    <text x="40" y="68" class="tCardH">エージェント</text>
    <text x="40" y="105" class="tCardS">カスタム専門家</text>
  </g>

  <!-- Center -->
  <g transform="translate(700 300)" filter="url(#softShadow)">
    <circle r="120" fill="url(#glassGradient)" stroke="url(#glassBorder)" stroke-width="2"/>
    <circle r="92" fill="#ffffff" opacity="0.6"/>
    <text y="10" text-anchor="middle" class="tCenter">ハーネス</text>
    <g transform="translate(0 96)">
      <rect x="-80" y="-18" width="160" height="36" rx="18" fill="#3b82f6" opacity="0.9"/>
      <text y="6" text-anchor="middle" class="tBadge">中核コンポーネント</text>
    </g>
  </g>

  <text x="700" y="760" text-anchor="middle" class="tSub">構成要素を組み合わせて、ハーネスが実行環境として機能するイメージ</text>
</svg>