<svg xmlns="http://www.w3.org/2000/svg" width="1400" height="800" viewBox="0 0 1400 800">
  <defs>
    <style>
      .tTitle{font:700 48px system-ui, sans-serif; fill:#e2e8f0; letter-spacing:-1px}
      .tSub{font:500 18px system-ui, sans-serif; fill:#64748b}
      .tCardH{font:700 28px system-ui, sans-serif; fill:#ffffff}
      .tCardS{font:500 16px system-ui, sans-serif; fill:#94a3b8}
      .tCenter{font:800 36px system-ui, sans-serif; fill:#ffffff}
      .tBadge{font:700 14px system-ui, sans-serif; fill:#0f172a}
      .path-bg{stroke:#1e293b; stroke-width:4; fill:none; stroke-linecap: round;}
      .path-flow{stroke:#38bdf8; stroke-width:4; fill:none; stroke-linecap: round; stroke-dasharray: 10 20; animation: flow 2s linear infinite;}
      
      @keyframes flow {
        from { stroke-dashoffset: 60; }
        to { stroke-dashoffset: 0; }
      }
      @keyframes pulse {
        0% { filter: drop-shadow(0 0 10px rgba(56, 189, 248, 0.2)); }
        50% { filter: drop-shadow(0 0 25px rgba(56, 189, 248, 0.8)); }
        100% { filter: drop-shadow(0 0 10px rgba(56, 189, 248, 0.2)); }
      }
      .core-glow { animation: pulse 3s infinite; }
    </style>
  </defs>

  <rect width="1400" height="800" fill="#0f172a"/>
  
  <!-- Subtle Grid -->
  <pattern id="dotGrid" width="30" height="30" patternUnits="userSpaceOnUse">
    <circle cx="2" cy="2" r="1" fill="#1e293b"/>
  </pattern>
  <rect width="1400" height="800" fill="url(#dotGrid)"/>

  <text x="700" y="100" text-anchor="middle" class="tTitle">ハーネスエンジニアリングとは？</text>

  <!-- Paths -->
  <!-- Left Top to Center -->
  <path id="p1" d="M 540 235 C 620 235, 620 300, 700 300" class="path-bg"/>
  <path d="M 540 235 C 620 235, 620 300, 700 300" class="path-flow"/>
  
  <!-- Left Bottom to Center -->
  <path id="p2" d="M 540 420 C 620 420, 620 300, 700 300" class="path-bg"/>
  <path d="M 540 420 C 620 420, 620 300, 700 300" class="path-flow"/>

  <!-- Center to Right Top -->
  <path id="p3" d="M 700 300 C 780 300, 780 235, 860 235" class="path-bg"/>
  <path d="M 700 300 C 780 300, 780 235, 860 235" class="path-flow" stroke="#a855f7"/>

  <!-- Center to Right Bottom -->
  <path id="p4" d="M 700 300 C 780 300, 780 420, 860 420" class="path-bg"/>
  <path d="M 700 300 C 780 300, 780 420, 860 420" class="path-flow" stroke="#a855f7"/>

  <!-- Center -->
  <g transform="translate(700 300)" class="core-glow">
    <circle r="110" fill="#1e293b" stroke="#38bdf8" stroke-width="3"/>
    <circle r="90" fill="#0f172a" stroke="#0ea5e9" stroke-width="1" stroke-dasharray="4 4"/>
    <text y="10" text-anchor="middle" class="tCenter">ハーネス</text>
    <g transform="translate(0 110)">
      <rect x="-80" y="-16" width="160" height="32" rx="16" fill="#38bdf8"/>
      <text y="5" text-anchor="middle" class="tBadge">中核コンポーネント</text>
    </g>
  </g>

  <!-- Left top -->
  <g transform="translate(180 180)">
    <rect width="360" height="110" rx="16" fill="#1e293b" stroke="#334155" stroke-width="2"/>
    <text x="35" y="48" class="tCardH">CLAUDE.md</text>
    <text x="35" y="85" class="tCardS">プロジェクト指示事項</text>
  </g>
  <!-- Left bottom -->
  <g transform="translate(180 400)">
    <rect width="360" height="110" rx="16" fill="#1e293b" stroke="#334155" stroke-width="2"/>
    <text x="35" y="48" class="tCardH">スキルファイル</text>
    <text x="35" y="85" class="tCardS">専門スキル設定</text>
  </g>
  <!-- Right top -->
  <g transform="translate(860 180)">
    <rect width="360" height="110" rx="16" fill="#1e293b" stroke="#a855f7" stroke-width="2"/>
    <text x="35" y="48" class="tCardH">MCPサーバ</text>
    <text x="35" y="85" class="tCardS">外部ツール連携</text>
  </g>
  <!-- Right bottom -->
  <g transform="translate(860 400)">
    <rect width="360" height="110" rx="16" fill="#1e293b" stroke="#a855f7" stroke-width="2"/>
    <text x="35" y="48" class="tCardH">エージェント</text>
    <text x="35" y="85" class="tCardS">カスタム専門家</text>
  </g>

  <text x="700" y="750" text-anchor="middle" class="tSub">※ Web上で表示するとデータフローのアニメーションが動きます</text>
</svg>