<svg xmlns="http://www.w3.org/2000/svg" viewBox="0 0 1400 800" font-family="'Nunito', 'Quicksand', system-ui, sans-serif">
  <defs>
    <linearGradient id="bg38" x1="0" y1="0" x2="0" y2="1">
      <stop offset="0%" stop-color="#fdfbfb"/>
      <stop offset="100%" stop-color="#ebedee"/>
    </linearGradient>
    <path id="blob-c1-38" d="M 50,-80 C 100,-90 120,-30 110,20 C 100,80 50,110 -20,100 C -90,90 -120,30 -100,-30 C -80,-80 -10,-70 50,-80 Z"/>
    <path id="blob-c2-38" d="M 60,-70 C 110,-60 120,0 90,50 C 60,100 -10,120 -60,90 C -110,60 -120,-10 -90,-60 C -60,-100 10,-80 60,-70 Z"/>
    <path id="blob-c3-38" d="M 30,-90 C 90,-80 110,-20 100,40 C 90,100 20,110 -40,90 C -100,70 -110,10 -80,-40 C -50,-90 -20,-100 30,-90 Z"/>
    <path id="blob-c4-38" d="M 80,-60 C 120,-30 110,40 70,80 C 30,120 -40,110 -80,70 C -120,30 -110,-40 -70,-80 C -30,-120 40,-90 80,-60 Z"/>
    <path id="blob-c5-38" d="M 40,-85 C 95,-75 115,-15 105,35 C 95,85 35,115 -25,95 C -85,75 -115,15 -95,-45 C -75,-85 -15,-95 40,-85 Z"/>
    <path id="blob-c6-38" d="M 70,-65 C 115,-45 120,10 95,55 C 65,105 -5,115 -55,85 C -105,55 -115,-15 -85,-65 C -55,-105 25,-85 70,-65 Z"/>
    <path id="blob-hub-38" d="M 90,-120 C 150,-100 160,-20 140,50 C 120,120 40,160 -40,140 C -120,120 -160,40 -130,-30 C -100,-100 -10,-140 90,-120 Z"/>
  </defs>

  <rect width="1400" height="800" fill="url(#bg38)"/>

  <!-- Title -->
  <text x="700" y="70" text-anchor="middle" font-size="46" font-weight="800" fill="#334155">ダメージ倍率スタック</text>
  <text x="700" y="105" text-anchor="middle" font-size="22" font-weight="600" fill="#64748b">最大ダメージの条件</text>

  <!-- Base Power -->
  <g transform="translate(700, 200)">
    <use href="#blob-c1-38" fill="#fef08a" transform="scale(1.2, 0.5)"/>
  </g>
  <text x="700" y="202" text-anchor="middle" font-size="18" font-weight="800" fill="#1e293b">basePower = (I + C + E) / 3 = 100（全軸MAX）</text>

  <!-- Layer 1: typeMultiplier -->
  <g transform="translate(700, 280)">
    <use href="#blob-c1-38" fill="#fbcfe8" transform="scale(1.4, 0.55)"/>
  </g>
  <circle cx="400" cy="275" r="22" fill="#ec4899"/>
  <text x="400" y="283" text-anchor="middle" font-size="28" font-weight="900" fill="#ffffff">1</text>
  <text x="640" y="280" text-anchor="middle" font-size="18" font-weight="600" fill="#1e293b">typeMultiplier</text>
  <text x="900" y="280" text-anchor="middle" font-size="22" font-weight="800" fill="#ec4899">x 1.8</text>
  <text x="1010" y="280" text-anchor="middle" font-size="14" font-weight="600" fill="#64748b">ultimate</text>

  <!-- Layer 2: langBonus -->
  <g transform="translate(700, 360)">
    <use href="#blob-c2-38" fill="#e9d5ff" transform="scale(1.4, 0.55)"/>
  </g>
  <circle cx="400" cy="355" r="22" fill="#a855f7"/>
  <text x="400" y="363" text-anchor="middle" font-size="28" font-weight="900" fill="#ffffff">2</text>
  <text x="640" y="360" text-anchor="middle" font-size="18" font-weight="600" fill="#1e293b">langBonus</text>
  <text x="900" y="360" text-anchor="middle" font-size="22" font-weight="800" fill="#a855f7">x 1.2</text>
  <text x="1010" y="360" text-anchor="middle" font-size="14" font-weight="600" fill="#64748b">mixed</text>

  <!-- Layer 3: elementBonus -->
  <g transform="translate(700, 440)">
    <use href="#blob-c3-38" fill="#bbf7d0" transform="scale(1.4, 0.55)"/>
  </g>
  <circle cx="400" cy="435" r="22" fill="#22c55e"/>
  <text x="400" y="443" text-anchor="middle" font-size="28" font-weight="900" fill="#ffffff">3</text>
  <text x="640" y="440" text-anchor="middle" font-size="18" font-weight="600" fill="#1e293b">elementBonus</text>
  <text x="900" y="440" text-anchor="middle" font-size="22" font-weight="800" fill="#22c55e">x 1.5</text>
  <text x="1010" y="440" text-anchor="middle" font-size="14" font-weight="600" fill="#64748b">属性有利</text>

  <!-- Layer 4: statRatio -->
  <g transform="translate(700, 520)">
    <use href="#blob-c4-38" fill="#fed7aa" transform="scale(1.4, 0.55)"/>
  </g>
  <circle cx="400" cy="515" r="22" fill="#f97316"/>
  <text x="400" y="523" text-anchor="middle" font-size="28" font-weight="900" fill="#ffffff">4</text>
  <text x="640" y="520" text-anchor="middle" font-size="18" font-weight="600" fill="#1e293b">statRatio</text>
  <text x="900" y="520" text-anchor="middle" font-size="22" font-weight="800" fill="#f97316">x 1.5</text>
  <text x="1010" y="520" text-anchor="middle" font-size="14" font-weight="600" fill="#64748b">ATK12/DEF8</text>

  <!-- Layer 5: CRITICAL -->
  <g transform="translate(700, 600)">
    <use href="#blob-c5-38" fill="#fbcfe8" transform="scale(1.4, 0.55)"/>
  </g>
  <circle cx="400" cy="595" r="22" fill="#ec4899"/>
  <text x="400" y="603" text-anchor="middle" font-size="28" font-weight="900" fill="#ffffff">5</text>
  <text x="640" y="600" text-anchor="middle" font-size="18" font-weight="600" fill="#1e293b">CRITICAL</text>
  <text x="900" y="600" text-anchor="middle" font-size="22" font-weight="800" fill="#ec4899">x 2.0</text>
  <text x="1010" y="600" text-anchor="middle" font-size="14" font-weight="600" fill="#64748b">C&gt;80 + 20%</text>

  <!-- Result Hub -->
  <g transform="translate(700, 695)">
    <use href="#blob-hub-38" fill="#8b5cf6" transform="scale(0.8, 0.35)"/>
  </g>
  <text x="700" y="698" text-anchor="middle" font-size="20" font-weight="800" fill="#ffffff">理論最大: 100 × 1.8 × 1.2 × 1.5 × 1.5 × 2.0 = 972</text>

  <!-- Footer -->
  <rect x="400" y="740" width="600" height="45" rx="25" fill="white"/>
  <text x="700" y="768" text-anchor="middle" font-size="16" font-weight="600" fill="#475569">最大ダメージの条件 — 理論最大 972</text>
</svg>