<svg xmlns="http://www.w3.org/2000/svg" width="1400" height="800" viewBox="0 0 1400 800">
  <defs>
    <!-- 背景グラデーション -->
    <linearGradient id="org-bg" x1="0" y1="0" x2="1" y2="1">
      <stop offset="0%" stop-color="#fdfbfb"/>
      <stop offset="100%" stop-color="#ebedee"/>
    </linearGradient>

    <!-- Blob パス定義 -->
    <!-- 黄系 Blob -->
    <path id="blob-c1" d="M 50,-80 C 100,-90 120,-30 110,20 C 100,80 50,110 -20,100 C -90,90 -120,30 -100,-30 C -80,-80 -10,-70 50,-80 Z"/>
    <!-- 青系 Blob -->
    <path id="blob-c2" d="M 60,-70 C 110,-60 120,0 90,50 C 60,100 -10,120 -60,90 C -110,60 -120,-10 -90,-60 C -60,-100 10,-80 60,-70 Z"/>
    <!-- ピンク系 Blob -->
    <path id="blob-c3" d="M 30,-90 C 90,-80 110,-20 100,40 C 90,100 20,110 -40,90 C -100,70 -110,10 -80,-40 C -50,-90 -20,-100 30,-90 Z"/>
    <!-- 緑系 Blob -->
    <path id="blob-c4" d="M 80,-60 C 120,-30 110,40 70,80 C 30,120 -40,110 -80,70 C -120,30 -110,-40 -70,-80 C -30,-120 40,-90 80,-60 Z"/>
    <!-- 大きいハブ Blob -->
    <path id="blob-hub" d="M 90,-120 C 150,-100 160,-20 140,50 C 120,120 40,160 -40,140 C -120,120 -160,40 -130,-30 C -100,-100 -10,-140 90,-120 Z"/>

    <style>
      .og-title { font: 800 46px 'Nunito', 'Quicksand', system-ui, sans-serif; fill: #334155; letter-spacing: -0.5px; }
      .og-sub { font: 600 22px 'Nunito', 'Quicksand', system-ui, sans-serif; fill: #64748b; }
      .og-h { font: 800 24px 'Nunito', 'Quicksand', system-ui, sans-serif; fill: #1e293b; }
      .og-s { font: 600 16px 'Nunito', 'Quicksand', system-ui, sans-serif; fill: #475569; }
      .og-num { font: 900 42px 'Nunito', 'Quicksand', system-ui, sans-serif; fill: #ffffff; }
      .og-center { font: 800 32px 'Nunito', 'Quicksand', system-ui, sans-serif; fill: #ffffff; }
    </style>
  </defs>

  <!-- 背景 -->
  <rect width="1400" height="800" fill="url(#org-bg)"/>

  <!-- タイトル -->
  <text x="700" y="110" text-anchor="middle" class="og-title">AIエージェント（スキル）を活用した爆速UI/UX構築</text>
  <text x="700" y="150" text-anchor="middle" class="og-sub">4つの特化型スキルを組み合わせたシナジー効果</text>

  <!-- コネクタ -->
  <g stroke="#94a3b8" stroke-width="4" stroke-dasharray="12 12" fill="none" stroke-linecap="round">
    <path d="M 330 330 Q 515 390 700 450" />
    <path d="M 330 580 Q 515 515 700 450" />
    <path d="M 1070 330 Q 885 390 700 450" />
    <path d="M 1070 580 Q 885 515 700 450" />
  </g>

  <!-- 要素群 -->
  <g transform="translate(280, 310)">
    <use href="#blob-c1" fill="#fef08a"/>
    <circle cx="-50" cy="-50" r="30" fill="#eab308"/>
    <text x="-50" y="-35" text-anchor="middle" class="og-num">1</text>
    <text x="0" y="10" text-anchor="middle" class="og-h">frontend-design</text>
    <text x="0" y="40" text-anchor="middle" class="og-s">コンポーネント設計・基盤生成</text>
  </g>

  <g transform="translate(1120, 310)">
    <use href="#blob-c2" fill="#bfdbfe"/>
    <circle cx="-50" cy="-50" r="30" fill="#3b82f6"/>
    <text x="-50" y="-35" text-anchor="middle" class="og-num">2</text>
    <text x="0" y="10" text-anchor="middle" class="og-h">color-palette</text>
    <text x="0" y="40" text-anchor="middle" class="og-s">ダークモードと属性カラーの自動生成</text>
  </g>

  <g transform="translate(280, 580)">
    <use href="#blob-c3" fill="#fbcfe8"/>
    <circle cx="-50" cy="-50" r="30" fill="#ec4899"/>
    <text x="-50" y="-35" text-anchor="middle" class="og-num">3</text>
    <text x="0" y="10" text-anchor="middle" class="og-h">interaction-design</text>
    <text x="0" y="40" text-anchor="middle" class="og-s">画面揺れやフラッシュ等の体験実装</text>
  </g>

  <g transform="translate(1120, 580)">
    <use href="#blob-c4" fill="#bbf7d0"/>
    <circle cx="-50" cy="-50" r="30" fill="#22c55e"/>
    <text x="-50" y="-35" text-anchor="middle" class="og-num">4</text>
    <text x="0" y="10" text-anchor="middle" class="og-h">web-design-guidelines</text>
    <text x="0" y="40" text-anchor="middle" class="og-s">アクセシビリティ・視認性の最適化</text>
  </g>

  <!-- ハブ -->
  <g transform="translate(700,450)">
    <use href="#blob-hub" fill="#8b5cf6"/>
    <text x="0" y="10" text-anchor="middle" class="og-center">UI/UX構築</text>
    <text x="0" y="40" text-anchor="middle" class="og-s" fill="#475569">爆速で高品質な体験</text>
  </g>

  <!-- フッター -->
  <g transform="translate(700, 740)">
    <rect x="-350" y="-30" width="700" height="60" rx="30" fill="#ffffff"/>
    <text x="0" y="8" text-anchor="middle" class="og-sub">専門的なデザイン知識がなくてもエージェントと協力して高速実装</text>
  </g>
</svg>